<?xml version="1.0" encoding="UTF-8"?>
<svg id="Layer_2" data-name="Layer 2" xmlns="http://www.w3.org/2000/svg" viewBox="0 0 443.3 105.2">
  <defs>
    <style>
      .cls-1 {
        fill: #3d2d66;
      }

      .cls-1, .cls-2 {
        stroke-width: 0px;
      }

      .cls-2 {
        fill: #000;
      }
    </style>
  </defs>
  <g id="Layer_1-2" data-name="Layer 1">
    <g>
      <g>
        <path class="cls-2" d="M151.07,72.12c2.08,0,3.8-.17,5.16-.52,1.35-.35,2.44-.82,3.26-1.42.82-.6,1.39-1.31,1.7-2.13.31-.82.47-1.73.47-2.74,0-2.14-1.01-3.93-3.03-5.35-2.02-1.42-5.49-2.95-10.41-4.59-2.15-.76-4.29-1.62-6.44-2.6-2.15-.98-4.07-2.21-5.77-3.69-1.7-1.48-3.09-3.28-4.16-5.4-1.07-2.11-1.61-4.69-1.61-7.71s.57-5.76,1.7-8.19c1.14-2.43,2.75-4.5,4.83-6.2,2.08-1.7,4.61-3.01,7.57-3.93,2.96-.91,6.31-1.37,10.03-1.37,4.42,0,8.23.47,11.45,1.42,3.22.95,5.87,1.99,7.95,3.12l-4.26,11.64c-1.83-.95-3.87-1.78-6.1-2.51-2.24-.72-4.94-1.09-8.09-1.09-3.53,0-6.07.49-7.62,1.47-1.55.98-2.32,2.48-2.32,4.5,0,1.2.28,2.21.85,3.03.57.82,1.37,1.56,2.41,2.22,1.04.66,2.24,1.26,3.6,1.8,1.35.54,2.85,1.09,4.5,1.66,3.41,1.26,6.37,2.51,8.9,3.74,2.52,1.23,4.62,2.67,6.29,4.31,1.67,1.64,2.92,3.57,3.74,5.77.82,2.21,1.23,4.89,1.23,8.04,0,6.12-2.15,10.87-6.44,14.24-4.29,3.38-10.76,5.06-19.4,5.06-2.9,0-5.52-.17-7.86-.52-2.34-.35-4.4-.77-6.2-1.28-1.8-.51-3.35-1.04-4.64-1.61-1.29-.57-2.38-1.1-3.27-1.61l4.16-11.73c1.96,1.07,4.37,2.03,7.24,2.89,2.87.85,6.39,1.28,10.55,1.28"/>
        <path class="cls-2" d="M180.49,58.49c0-3.85.58-7.37,1.75-10.55,1.17-3.19,2.85-5.93,5.06-8.23,2.21-2.3,4.92-4.08,8.14-5.35,3.22-1.26,6.88-1.89,10.98-1.89,1.7,0,3.49.08,5.35.24,1.86.16,3.69.36,5.49.62,1.8.25,3.52.55,5.16.9,1.64.35,3.09.71,4.35,1.09v65.59h-14.1v-18.74c-1.58.69-3.22,1.23-4.92,1.61-1.7.38-3.53.57-5.49.57-7.07,0-12.46-2.32-16.18-6.96-3.72-4.64-5.58-10.93-5.58-18.88M194.88,58.87c0,9.02,3.34,13.53,10.03,13.53,1.45,0,2.89-.19,4.31-.57,1.42-.38,2.57-.85,3.45-1.42v-25.46c-.7-.13-1.58-.24-2.65-.33s-2.24-.14-3.5-.14c-3.85,0-6.75,1.31-8.71,3.93-1.96,2.62-2.93,6.11-2.93,10.46"/>
        <path class="cls-2" d="M275.84,81.68c-2.4.69-5.49,1.34-9.28,1.94-3.79.6-7.76.9-11.92.9s-7.75-.57-10.55-1.7c-2.81-1.14-5.03-2.73-6.67-4.78-1.64-2.05-2.81-4.5-3.5-7.34-.7-2.84-1.04-5.96-1.04-9.37v-27.73h14.1v26.03c0,4.54.6,7.82,1.8,9.84,1.2,2.02,3.44,3.03,6.72,3.03,1.01,0,2.08-.05,3.22-.14,1.14-.09,2.15-.2,3.03-.33v-38.42h14.1v48.08Z"/>
        <path class="cls-2" d="M301.41,32.27c4.16,0,7.63.47,10.41,1.42,2.78.95,5,2.3,6.67,4.07,1.67,1.77,2.85,3.91,3.55,6.44.69,2.52,1.04,5.33,1.04,8.42v29.34c-2.02.44-4.83.96-8.42,1.56-3.6.6-7.95.9-13.06.9-3.22,0-6.14-.28-8.75-.85s-4.87-1.5-6.77-2.79c-1.89-1.29-3.35-2.98-4.35-5.06-1.01-2.08-1.52-4.64-1.52-7.67s.58-5.36,1.75-7.38c1.17-2.02,2.73-3.63,4.69-4.83,1.96-1.2,4.2-2.07,6.72-2.6,2.52-.53,5.14-.81,7.85-.81,1.83,0,3.45.08,4.88.24,1.42.16,2.57.36,3.45.62v-1.33c0-2.4-.73-4.32-2.18-5.77-1.45-1.45-3.97-2.18-7.57-2.18-2.4,0-4.77.18-7.1.52-2.34.35-4.35.84-6.06,1.47l-1.8-11.36c.82-.25,1.85-.52,3.08-.81,1.23-.28,2.57-.53,4.02-.76,1.45-.22,2.98-.41,4.59-.57,1.61-.16,3.23-.24,4.88-.24M302.54,73.54c1.39,0,2.71-.03,3.97-.09,1.26-.06,2.27-.16,3.03-.28v-10.69c-.57-.13-1.42-.25-2.56-.38-1.14-.13-2.18-.19-3.12-.19-1.33,0-2.57.08-3.74.24-1.17.16-2.19.46-3.08.9s-1.58,1.04-2.08,1.8c-.51.76-.76,1.7-.76,2.84,0,2.21.74,3.74,2.22,4.59,1.48.85,3.52,1.28,6.1,1.28"/>
        <path class="cls-2" d="M373.09,81.77c-1.26.38-2.71.74-4.35,1.09-1.64.35-3.36.65-5.16.9-1.8.25-3.63.46-5.49.62-1.86.16-3.64.24-5.35.24-4.1,0-7.76-.6-10.98-1.8-3.22-1.2-5.93-2.92-8.14-5.16-2.21-2.24-3.9-4.95-5.06-8.14-1.17-3.19-1.75-6.77-1.75-10.74s.5-7.68,1.51-10.93c1.01-3.25,2.46-6.01,4.35-8.28,1.89-2.27,4.21-4.01,6.96-5.21,2.75-1.2,5.88-1.8,9.42-1.8,1.96,0,3.71.19,5.25.57,1.54.38,3.11.91,4.69,1.61V12.21l14.1-2.27v71.83ZM341.2,58.11c0,4.35.98,7.85,2.93,10.51,1.95,2.65,4.86,3.97,8.71,3.97,1.26,0,2.43-.05,3.5-.14s1.96-.2,2.65-.33v-25.65c-.89-.57-2.04-1.04-3.45-1.42-1.42-.38-2.86-.57-4.31-.57-6.69,0-10.03,4.54-10.03,13.63"/>
        <path class="cls-2" d="M395.08,19.21c0,2.59-.84,4.62-2.51,6.1-1.67,1.48-3.64,2.22-5.92,2.22s-4.24-.74-5.91-2.22c-1.67-1.48-2.51-3.52-2.51-6.1s.84-4.62,2.51-6.1c1.67-1.48,3.64-2.22,5.91-2.22s4.24.74,5.92,2.22c1.67,1.48,2.51,3.52,2.51,6.1M393.76,83.38h-14.1v-49.78h14.1v49.78Z"/>
        <path class="cls-2" d="M400.33,35.3c2.4-.69,5.49-1.34,9.28-1.94s7.76-.9,11.92-.9,7.75.55,10.55,1.66c2.81,1.1,5.03,2.67,6.67,4.69,1.64,2.02,2.81,4.42,3.5,7.19.69,2.78,1.04,5.87,1.04,9.28v28.11h-14.1v-26.41c0-4.54-.6-7.76-1.8-9.65-1.2-1.89-3.44-2.84-6.72-2.84-1.01,0-2.08.05-3.22.14-1.14.09-2.15.21-3.03.33v38.43h-14.1v-48.08Z"/>
      </g>
      <g>
        <polygon class="cls-1" points="0 86.32 94.99 86.32 74.77 105.2 0 105.2 0 86.32"/>
        <polygon class="cls-1" points="40.44 57.55 94.99 57.55 94.99 76.42 20.22 76.42 40.44 57.55"/>
        <polygon class="cls-1" points="0 28.77 54.55 28.77 74.77 47.65 0 47.65 0 28.77"/>
        <polygon class="cls-1" points="20.22 0 94.99 0 94.99 18.87 0 18.87 20.22 0"/>
      </g>
    </g>
  </g>
</svg>
